<svg width="218" height="218" viewBox="0 0 218 218" fill="none" xmlns="http://www.w3.org/2000/svg">
<rect width="218" height="218" rx="34" fill="url(#paint0_linear_0_449)"/>
<g filter="url(#filter0_d_0_449)">
<path fill-rule="evenodd" clip-rule="evenodd" d="M92.1488 91.1146C84.455 87.723 75.8 90.63 69.0679 90.4685C62.3358 90.1461 46.1473 86.7545 39.4153 85.7849C24.0282 83.8469 8 86.1079 8 86.1079C8 86.1079 24.9996 87.6339 36.7 89.5719C48.401 91.5094 62.8263 94.2555 70.1996 99.9082C77.5728 105.56 73.5698 118.507 82.2211 133.984C88 144.323 102.5 149.071 121 152C121 152 98.0168 142.754 92.1488 139C83.4494 133.435 84.135 121.477 84.135 121.477C84.135 121.477 84.2947 114.855 95.034 109.525C90.7062 102.904 88.943 104.519 85.577 104.034C82.2115 103.55 77.5626 99.8358 79.0058 95.9597C81.4095 89.8225 97.9186 92.2451 99.5215 105.488C100.644 104.034 99.8426 94.6676 92.1488 91.1146Z" fill="white"/>
<path fill-rule="evenodd" clip-rule="evenodd" d="M134.238 156.393C133.913 156.393 134.562 156.708 134.888 156.866C141.383 162.228 145.606 160.809 152.589 166.171C159.572 171.376 161.845 178 161.845 178C161.033 173.111 156.811 165.067 150.64 158.917C145.444 153.869 140.896 152.608 140.896 152.608C144.306 151.188 148.692 153.081 148.692 153.081C148.692 153.081 146.256 148.98 139.272 147.403C138.948 147.403 138.46 147.245 138.623 147.403C140.572 150.715 138.948 155.131 134.238 156.393Z" fill="white"/>
<path fill-rule="evenodd" clip-rule="evenodd" d="M121.002 121.028C120.043 119.915 128.037 109.099 133.152 99.0769C134.271 96.8492 134.751 96.372 134.591 93.8273C134.431 90.9639 130.753 87.4647 127.077 88.1005C123.56 88.7368 111.09 99.3945 113.648 95.0994C119.723 85.078 127.647 67.8976 142.994 56.4446C158.341 44.9916 198.539 26.8567 198.539 28.2884C197.579 38.1512 183.351 42.2872 159.69 56.4446C152.656 60.5806 136.829 71.0792 136.349 72.0342C135.87 72.9881 150.578 62.8072 160.01 57.24C173.279 49.4452 186.388 42.1282 186.068 43.7189C185.109 51.5132 172.32 57.0809 154.734 65.9893C149.458 68.5345 137.788 74.4198 137.308 75.2152C136.829 76.0112 149.618 69.1708 154.895 66.6256C168.962 59.4671 177.435 55.0129 177.116 57.5581C175.837 65.6711 164.327 69.0117 149.618 75.3743C146.261 76.806 139.387 79.6694 139.067 80.4648C138.748 81.2602 145.781 77.7605 149.938 76.0112C157.133 72.9881 164.167 70.2844 162.248 74.4198C159.051 80.942 155.853 81.4192 150.418 87.146C127.237 110.848 125.958 119.438 127.077 121.028C131 130.118 136.829 140.754 136.829 140.754C136.829 140.754 128.516 130.732 121.002 121.028Z" fill="white"/>
<circle cx="85" cy="98" r="3" fill="white"/>
<path fill-rule="evenodd" clip-rule="evenodd" d="M125.891 94.5649C126.197 94.6794 126.502 94.7939 126.731 94.9466L128.053 93.9924L129.046 94.9466L128.076 96.239C128.229 96.5062 128.343 96.7733 128.42 97.0787L130 97.313V98.687L128.196 98.8489C128.12 99.1542 128.005 99.4596 127.853 99.6886L129.046 101.053L128.053 102.046L126.731 100.71C126.502 100.863 126.197 100.977 125.891 101.053L125.687 103H124.313L124.152 101.209C123.846 101.132 123.579 101.018 123.312 100.865L121.947 102.046L120.992 101.053L122.077 99.6886C121.925 99.4596 121.81 99.1542 121.696 98.8489L120 98.687V97.313L121.696 97.0787C121.81 96.7733 121.925 96.5062 122.077 96.239L120.992 94.9466L121.947 93.9924L123.312 94.9466C123.579 94.7939 123.846 94.6794 124.152 94.5649L124.313 93H125.687L125.891 94.5649Z" fill="white"/>
<path fill-rule="evenodd" clip-rule="evenodd" d="M129.07 141.878C129.436 142.015 129.802 142.153 130.077 142.336L131.664 141.191L132.855 142.336L131.691 143.887C131.875 144.207 132.012 144.528 132.104 144.894L134 145.176V146.824L131.835 147.019C131.744 147.385 131.606 147.752 131.423 148.026L132.855 149.664L131.664 150.855L130.077 149.252C129.802 149.435 129.436 149.573 129.07 149.664L128.824 152H127.176L126.982 149.851C126.615 149.759 126.295 149.622 125.974 149.438L124.336 150.855L123.191 149.664L124.493 148.026C124.309 147.752 124.172 147.385 124.035 147.019L122 146.824V145.176L124.035 144.894C124.172 144.528 124.309 144.207 124.493 143.887L123.191 142.336L124.336 141.191L125.974 142.336C126.295 142.153 126.615 142.015 126.982 141.878L127.176 140H128.824L129.07 141.878Z" fill="white"/>
<path fill-rule="evenodd" clip-rule="evenodd" d="M104.497 112.033C104.917 112.086 105.33 112.161 105.736 112.257L106.976 110.586C107.547 110.759 108.104 110.969 108.643 111.211L108.549 113.311C108.924 113.508 109.287 113.724 109.638 113.959L111.357 112.827C111.834 113.189 112.289 113.582 112.717 114.002L111.931 115.942C112.216 116.258 112.487 116.588 112.739 116.932L114.732 116.473C115.059 116.978 115.356 117.507 115.621 118.054L114.239 119.6C114.402 119.996 114.546 120.402 114.67 120.818L116.693 121.087C116.831 121.674 116.934 122.275 117 122.887L115.187 123.853C115.197 124.067 115.203 124.283 115.203 124.5C115.203 124.717 115.198 124.933 115.187 125.147L117 126.113C116.934 126.725 116.831 127.326 116.693 127.913L114.67 128.182C114.546 128.598 114.402 129.005 114.239 129.4L115.621 130.946C115.356 131.493 115.059 132.021 114.732 132.527L112.74 132.068C112.487 132.412 112.217 132.742 111.931 133.058L112.717 134.998C112.289 135.418 111.834 135.811 111.357 136.173L109.638 135.041C109.287 135.276 108.924 135.492 108.549 135.689L108.643 137.789C108.104 138.032 107.547 138.241 106.976 138.414L105.736 136.743C105.33 136.839 104.917 136.914 104.497 136.967L103.888 138.971C103.594 138.99 103.298 139 103 139C102.702 139 102.406 138.99 102.112 138.971L101.503 136.968C101.083 136.915 100.669 136.84 100.263 136.744L99.0242 138.414C98.4526 138.241 97.8958 138.032 97.357 137.789L97.4508 135.69C97.0758 135.492 96.7127 135.276 96.3615 135.041L94.6434 136.173C94.166 135.811 93.7112 135.418 93.2827 134.998L94.0687 133.058C93.7832 132.742 93.5133 132.412 93.2606 132.068L91.2679 132.528C90.9406 132.022 90.6436 131.494 90.3789 130.946L91.7611 129.4C91.598 129.004 91.4535 128.598 91.3298 128.182L89.3065 127.913C89.1687 127.326 89.0661 126.725 89 126.113L90.8127 125.147C90.8022 124.933 90.7965 124.717 90.7965 124.5C90.7965 124.283 90.8022 124.067 90.8127 123.853L89 122.887C89.0661 122.275 89.1687 121.674 89.3065 121.087L91.3298 120.818C91.4535 120.402 91.5976 119.996 91.7607 119.6L90.3789 118.054C90.6436 117.507 90.9403 116.978 91.2675 116.473L93.2606 116.932C93.5133 116.588 93.7832 116.258 94.0687 115.942L93.2827 114.002C93.7112 113.582 94.166 113.189 94.6434 112.827L96.3622 113.96C96.7134 113.725 97.0761 113.508 97.4508 113.311L97.357 111.211C97.8958 110.968 98.4526 110.759 99.0242 110.586L100.264 112.257C100.67 112.162 101.083 112.086 101.503 112.033L102.112 110.029C102.406 110.01 102.702 110 103 110C103.298 110 103.594 110.01 103.888 110.029L104.497 112.033ZM103.5 121C105.433 121 107 122.567 107 124.5C107 126.433 105.433 128 103.5 128C101.567 128 100 126.433 100 124.5C100 122.567 101.567 121 103.5 121ZM103.5 117C107.642 117 111 120.358 111 124.5C111 128.642 107.642 132 103.5 132C99.3579 132 96 128.642 96 124.5C96 120.358 99.3579 117 103.5 117Z" fill="white"/>
</g>
<defs>
<filter id="filter0_d_0_449" x="4" y="24.2085" width="198.539" height="157.792" filterUnits="userSpaceOnUse" color-interpolation-filters="sRGB">
<feFlood flood-opacity="0" result="BackgroundImageFix"/>
<feColorMatrix in="SourceAlpha" type="matrix" values="0 0 0 0 0 0 0 0 0 0 0 0 0 0 0 0 0 0 127 0" result="hardAlpha"/>
<feOffset/>
<feGaussianBlur stdDeviation="2"/>
<feColorMatrix type="matrix" values="0 0 0 0 0 0 0 0 0 0 0 0 0 0 0 0 0 0 0.25 0"/>
<feBlend mode="normal" in2="BackgroundImageFix" result="effect1_dropShadow_0_449"/>
<feBlend mode="normal" in="SourceGraphic" in2="effect1_dropShadow_0_449" result="shape"/>
</filter>
<linearGradient id="paint0_linear_0_449" x1="6.65648" y1="6.86239" x2="6.65648" y2="211.549" gradientUnits="userSpaceOnUse">
<stop stop-color="#2FCBD5"/>
<stop offset="1" stop-color="#159BAB"/>
</linearGradient>
</defs>
</svg>
