<svg width="218" height="218" viewBox="0 0 218 218" fill="none" xmlns="http://www.w3.org/2000/svg">
<rect width="218" height="218" fill="url(#paint0_linear_0_427)"/>
<path fill-rule="evenodd" clip-rule="evenodd" d="M37 64.4381C37 54.2613 45.2932 46 55.4991 46H144.916C155.121 46 163.417 54.2613 163.417 64.4381V87.5425C163.663 87.5057 163.926 87.4876 164.188 87.4876H171.124V84.0309C171.124 82.1225 172.682 80.5724 174.594 80.5724H181.53C183.442 80.5724 185 82.1225 185 84.0309V133.969C185 135.877 183.442 137.428 181.53 137.428H174.594C172.682 137.428 171.124 135.877 171.124 133.969V130.512H164.188C163.926 130.512 163.663 130.494 163.417 130.457V153.562C163.417 163.734 155.121 172 144.916 172H55.4991C45.2932 172 37 163.734 37 153.562V130.457C37.2467 130.494 37.509 130.512 37.7711 130.512H44.7073V133.969C44.7073 135.877 46.2656 137.428 48.1773 137.428H55.1135C57.0252 137.428 58.5835 135.877 58.5835 133.969V84.0309C58.5835 82.1225 57.0252 80.5724 55.1135 80.5724H48.1773C46.2656 80.5724 44.7073 82.1225 44.7073 84.0309V87.4876H37.7711C37.509 87.4876 37.2467 87.5057 37 87.5425V64.4381ZM121.563 83.0007H121.532C121.316 82.9986 121.1 83.0015 120.886 83.0102C116.063 82.7207 104.242 88.6517 97.8475 91.8601C97.5316 92.0186 97.2289 92.1705 96.9409 92.3146C96.3031 92.6344 95.6335 92.8577 94.9267 93.0295C94.7598 93.0316 94.5962 93.0638 94.4336 93.1243C94.392 93.1298 94.3459 93.1362 94.2963 93.143C94.0243 93.1806 93.6501 93.2324 93.3601 93.2324C92.2112 93.2324 91.1477 92.9115 90.2819 92.3696V92.3848C87.4408 90.5534 83.2221 88.3931 81.8307 87.6918C81.7705 87.6513 81.7154 87.6146 81.6659 87.5816C81.6276 87.556 81.5926 87.5327 81.5613 87.5117V87.5098C81.503 87.4595 81.4391 87.4172 81.3698 87.3828L81.366 87.3809C81.2423 87.3199 81.1034 87.286 80.9563 87.286C80.6166 87.286 80.3195 87.4686 80.1579 87.7411L79.7709 88.2929C78.611 89.8001 77.4446 93.6478 77.1005 103.085C77.0352 104.821 77 106.745 77 108.878V108.999V109.122C77 111.255 77.0352 113.178 77.1005 114.915C77.4579 124.715 78.7028 128.487 79.9056 129.87L80.1579 130.23C80.3195 130.503 80.6166 130.685 80.9563 130.685C81.0804 130.685 81.1971 130.661 81.3053 130.617C81.3256 130.618 81.3461 130.619 81.366 130.619C81.366 130.619 81.5347 130.508 81.8307 130.31C83.2221 129.608 87.4408 127.446 90.2819 125.615V125.63C91.1477 125.088 92.2112 124.769 93.3601 124.769C93.6564 124.769 94.0404 124.822 94.3137 124.859C94.3567 124.865 94.3969 124.871 94.4336 124.875C94.5962 124.936 94.7598 124.969 94.9267 124.972C95.6335 125.143 96.3031 125.368 96.9409 125.687C97.2258 125.83 97.5252 125.98 97.8375 126.136C104.23 129.344 116.061 135.279 120.886 134.989C121.1 134.999 121.316 135.002 121.532 134.999H121.563C122.028 134.998 122.487 134.972 122.943 134.921C138.574 133.346 147 109.043 147 109.043L146.985 109.001C146.994 108.972 147 108.957 147 108.957C147 108.957 138.574 84.6561 122.943 83.0804C122.487 83.0292 122.028 83.0027 121.563 83.0007Z" fill="white" fill-opacity="0.83"/>
<g filter="url(#filter0_d_0_427)">
<path fill-rule="evenodd" clip-rule="evenodd" d="M121.532 83.0007H121.563C122.028 83.0027 122.487 83.0292 122.943 83.0804C138.574 84.6561 147 108.957 147 108.957C147 108.957 146.994 108.972 146.985 109.001C146.995 109.029 147 109.043 147 109.043C147 109.043 138.574 133.346 122.943 134.921C122.487 134.972 122.028 134.998 121.563 134.999H121.532C121.316 135.002 121.1 134.999 120.886 134.989C115.825 135.293 103.057 128.749 96.9409 125.687C96.3031 125.368 95.6335 125.143 94.9267 124.972C94.7598 124.969 94.5962 124.936 94.4336 124.875C94.1633 124.84 93.7029 124.769 93.3601 124.769C92.2112 124.769 91.1477 125.088 90.2819 125.63V125.615C87.4408 127.446 83.2221 129.608 81.8307 130.31C81.5347 130.508 81.366 130.619 81.366 130.619C81.3461 130.619 81.3256 130.618 81.3053 130.617C81.1971 130.661 81.0804 130.685 80.9563 130.685C80.6166 130.685 80.3195 130.503 80.1579 130.23L79.9056 129.87C78.7028 128.487 77.4579 124.715 77.1005 114.915C77.0352 113.178 77 111.255 77 109.122V108.999V108.878C77 106.745 77.0352 104.821 77.1005 103.085C77.4446 93.6478 78.611 89.8001 79.7709 88.2929L80.1579 87.7411C80.3195 87.4686 80.6166 87.286 80.9563 87.286C81.1034 87.286 81.2423 87.3199 81.366 87.3809L81.3698 87.3828C81.4391 87.4172 81.503 87.4595 81.5613 87.5098V87.5117C81.6329 87.5598 81.7238 87.6198 81.8307 87.6918C83.2221 88.3931 87.4408 90.5534 90.2819 92.3848V92.3696C91.1477 92.9115 92.2112 93.2324 93.3601 93.2324C93.7029 93.2324 94.1633 93.1601 94.4336 93.1243C94.5962 93.0638 94.7598 93.0316 94.9267 93.0295C95.6335 92.8577 96.3031 92.6344 96.9409 92.3146C103.057 89.2529 115.825 82.7064 120.886 83.0102C121.1 83.0015 121.316 82.9986 121.532 83.0007Z" fill="#191919" fill-opacity="0.38"/>
</g>
<g opacity="0.377953" filter="url(#filter1_d_0_427)">
<path fill-rule="evenodd" clip-rule="evenodd" d="M121.532 83.0007H121.563C122.028 83.0027 122.487 83.0292 122.943 83.0804C138.574 84.6561 147 108.957 147 108.957C147 108.957 146.994 108.972 146.985 109.001C146.995 109.029 147 109.043 147 109.043C147 109.043 138.574 133.346 122.943 134.921C122.487 134.972 122.028 134.998 121.563 134.999H121.532C121.316 135.002 121.1 134.999 120.886 134.989C115.825 135.293 103.057 128.749 96.9409 125.687C96.3031 125.368 95.6335 125.143 94.9267 124.972C94.7598 124.969 94.5962 124.936 94.4336 124.875C94.1633 124.84 93.7029 124.769 93.3601 124.769C92.2112 124.769 91.1477 125.088 90.2819 125.63V125.615C87.4408 127.446 83.2221 129.608 81.8307 130.31C81.5347 130.508 81.366 130.619 81.366 130.619C81.3461 130.619 81.3256 130.618 81.3053 130.617C81.1971 130.661 81.0804 130.685 80.9563 130.685C80.6166 130.685 80.3195 130.503 80.1579 130.23L79.9056 129.87C78.7028 128.487 77.4579 124.715 77.1005 114.915C77.0352 113.178 77 111.255 77 109.122V108.999V108.878C77 106.745 77.0352 104.821 77.1005 103.085C77.4446 93.6478 78.611 89.8001 79.7709 88.2929L80.1579 87.7411C80.3195 87.4686 80.6166 87.286 80.9563 87.286C81.1034 87.286 81.2423 87.3199 81.366 87.3809L81.3698 87.3828C81.4391 87.4172 81.503 87.4595 81.5613 87.5098V87.5117C81.6329 87.5598 81.7238 87.6198 81.8307 87.6918C83.2221 88.3931 87.4408 90.5534 90.2819 92.3848V92.3696C91.1477 92.9115 92.2112 93.2324 93.3601 93.2324C93.7029 93.2324 94.1633 93.1601 94.4336 93.1243C94.5962 93.0638 94.7598 93.0316 94.9267 93.0295C95.6335 92.8577 96.3031 92.6344 96.9409 92.3146C103.057 89.2529 115.825 82.7064 120.886 83.0102C121.1 83.0015 121.316 82.9986 121.532 83.0007Z" fill="#191919" fill-opacity="0.38"/>
</g>
<defs>
<filter id="filter0_d_0_427" x="73" y="79" width="78" height="60" filterUnits="userSpaceOnUse" color-interpolation-filters="sRGB">
<feFlood flood-opacity="0" result="BackgroundImageFix"/>
<feColorMatrix in="SourceAlpha" type="matrix" values="0 0 0 0 0 0 0 0 0 0 0 0 0 0 0 0 0 0 127 0" result="hardAlpha"/>
<feOffset/>
<feGaussianBlur stdDeviation="2"/>
<feColorMatrix type="matrix" values="0 0 0 0 0 0 0 0 0 0 0 0 0 0 0 0 0 0 0.111215 0"/>
<feBlend mode="normal" in2="BackgroundImageFix" result="effect1_dropShadow_0_427"/>
<feBlend mode="normal" in="SourceGraphic" in2="effect1_dropShadow_0_427" result="shape"/>
</filter>
<filter id="filter1_d_0_427" x="73" y="79" width="78" height="60" filterUnits="userSpaceOnUse" color-interpolation-filters="sRGB">
<feFlood flood-opacity="0" result="BackgroundImageFix"/>
<feColorMatrix in="SourceAlpha" type="matrix" values="0 0 0 0 0 0 0 0 0 0 0 0 0 0 0 0 0 0 127 0" result="hardAlpha"/>
<feOffset/>
<feGaussianBlur stdDeviation="2"/>
<feColorMatrix type="matrix" values="0 0 0 0 0 0 0 0 0 0 0 0 0 0 0 0 0 0 0.111215 0"/>
<feBlend mode="normal" in2="BackgroundImageFix" result="effect1_dropShadow_0_427"/>
<feBlend mode="normal" in="SourceGraphic" in2="effect1_dropShadow_0_427" result="shape"/>
</filter>
<linearGradient id="paint0_linear_0_427" x1="6.65648" y1="6.86239" x2="6.65648" y2="211.549" gradientUnits="userSpaceOnUse">
<stop stop-color="#BA43CB"/>
<stop offset="1" stop-color="#881199"/>
</linearGradient>
</defs>
</svg>
